PathFileType	4	(X/Y/Z)	C:/Users/beibeiliu/ov580/test_trc/User3\out7_training_dense_left.trc
DataRate	CameraRate	NumFrames	NumMarkers	Units	OrigDataRate	OrigDataStartFrame	OrigNumFrames
120	120	12	19	mm	120	126	500
Frame#	Time	ThumbCMC			ThumbMCP			ThumbIP			ThumbTip			IndexMCP			IndexPIP			IndexTip			MiddleMCP			MiddlePIP			MiddleTip			RingMCP			RingPIP			RingTip			PinkyMCP			PinkyPIP			PinkyTip			BackHand1			BackHand2			BackHand3	
		X0	Y0	Z0	X1	Y1	Z1	X2	Y2	Z2	X3	Y3	Z3	X4	Y4	Z4	X5	Y5	Z5	X6	Y6	Z6	X7	Y7	Z7	X8	Y8	Z8	X9	Y9	Z9	X10	Y10	Z10	X11	Y11	Z11	X12	Y12	Z12	X13	Y13	Z13	X14	Y14	Z14	X15	Y15	Z15	X16	Y16	Z16	X17	Y17	Z17	X18	Y18	Z18	
125	1.04167	-112.117	51.2537	56.8283	-89.7285	36.0523	42.2982	-71.4354	23.8008	21.0425	-64.905	12.6059	0.543208	-105.121	76.4904	-14.0632	-89.9856	75.0354	-41.0776	-79.4846	57.4348	-64.0266	-123.599	79.2755	-30.7025	-113.517	73.9215	-58.534	-100.581	52.1357	-83.0656	-147.236	68.7895	-28.2523	-132.964	63.8903	-57.0859	-126.704	43.0723	-77.2322	-167.743	52.0738	-20.4486	-159.252	46.9416	-45.7203	-152.022	29.8766	-63.019	-165.38	72.2494	18.9637	-174.331	72.0623	46.3336	-138.463	76.3581	44.2867	
126	1.05	-111.479	47.4672	56.4553	-92.6339	32.7162	43.4073	-68.3021	18.1273	23.6391	-60.2455	5.28063	7.59748	-101.698	71.4453	-19.8097	-88.566	69.2592	-42.9311	-80.3607	55.5007	-69.6196	-126.792	73.2615	-28.3472	-112.103	72.3468	-55.4356	-101.056	57.337	-84.5207	-146.589	66.2729	-33.5115	-138.633	61.7363	-56.6178	-132.02	48.3315	-79.5961	-171.649	52.8268	-21.4239	-164.092	49.1668	-42.541	-160.169	33.5016	-65.3442	-161.684	74.3029	16.0066	-172.874	72.1039	48.5257	-137.245	76.2912	38.8731	
127	1.05833	-111.726	43.9694	56.0077	-89.4275	25.5803	46.7955	-71.8675	10.9632	29.0007	-54.9118	-4.45778	13.5183	-103.759	61.0381	-22.1024	-88.9436	58.8957	-43.1707	-79.6435	50.4141	-70.8542	-121.578	66.454	-33.3502	-113.734	63.4427	-60.3977	-105.307	52.7156	-90.7835	-146.919	61.2353	-32.6945	-144.14	58.1637	-56.8635	-135.166	46.887	-84.8701	-174.028	50.8931	-22.0394	-173.826	46.2823	-44.332	-168.486	35.1349	-67.245	-159.824	71.3204	19.535	-168.772	75.2959	42.7478	-135.221	72.0742	35.5595	
128	1.06667	-112.703	40.1193	55.1971	-91.089	21.1147	46.6826	-70.8826	4.44578	31.7114	-57.231	-10.5173	23.2884	-105.782	52.7302	-21.2139	-90.0447	50.08	-46.3439	-78.1027	43.289	-65.259	-125.25	59.2481	-36.5568	-114.478	57.2985	-61.8442	-109.624	47.1769	-91.6222	-149.782	56.066	-35.8015	-146.932	53.6029	-56.7749	-141.887	43.1924	-86.5254	-173.703	47.1291	-20.2113	-177.604	42.5256	-45.3145	-173.919	32.5094	-69.2359	-159.74	67.5193	14.7036	-169.047	74.5058	43.5886	-132.156	68.5479	37.7242	
129	1.075	-111.626	36.9715	54.2165	-92.321	17.0374	45.0738	-70.0391	-0.638312	30.638	-60.2365	-13.9613	24.4576	-102.947	46.7538	-19.9909	-87.9201	42.9686	-48.2352	-78.504	37.0056	-66.5072	-128.632	54.7066	-35.7478	-115.906	50.4803	-63.7078	-109.952	42.1628	-92.746	-151.465	50.9068	-36.0718	-149.342	48.3075	-59.6187	-146.213	38.5613	-85.9629	-177.148	45.1666	-22.3362	-177.009	39.0536	-45.0461	-177.75	30.6426	-68.9253	-158.883	66.38	14.5039	-165.378	72.9346	42.3447	-129.435	64.2052	34.364	
130	1.08333	-110.149	34.9313	51.2759	-88.6999	14.3489	42.184	-70.5451	-4.72636	30.6669	-56.9945	-19.0918	23.7171	-101.443	44.9146	-20.8304	-89.5671	41.1778	-48.6156	-80.3109	31.8634	-72.0605	-123.75	52.2655	-36.2458	-116.188	47.8501	-62.9699	-109.133	36.1798	-91.3526	-151.941	49.4424	-32.5267	-144.003	43.1051	-62.0904	-143.91	32.051	-87.9984	-172.99	42.1683	-24.678	-174.666	35.571	-44.6545	-177.968	24.7884	-67.3275	-158.602	65.7657	10.364	-166.266	69.0366	41.2228	-130.083	63.8656	36.3966	
131	1.09167	-111.44	35.0956	52.4692	-91.0637	13.4426	41.3848	-72.2362	-4.86128	31.1093	-60.9237	-21.7307	19.4238	-100.425	46.9476	-24.4517	-88.9896	42.0649	-46.6654	-83.7281	30.048	-70.6225	-122.7	54.8087	-37.8385	-114.432	47.5754	-64.4004	-110.15	31.0157	-93.9205	-148.46	49.2257	-34.6069	-145.419	43.4255	-62.2487	-144.51	28.5722	-84.5098	-168.317	42.2324	-23.2735	-172.967	33.7604	-45.8267	-174.408	20.2401	-69.5257	-159.921	65.2665	13.9189	-163.651	70.8267	42.1166	-131.032	64.7763	37.0378	
132	1.1	-107.954	35.3477	51.249	-86.8903	11.3971	41.0727	-70.5989	-6.24379	26.2833	-62.3947	-22.2561	16.5851	-100.443	49.6843	-23.763	-89.2799	43.0473	-50.3459	-81.0058	27.908	-69.8342	-119.778	56.6521	-37.9688	-113.49	47.8349	-65.5699	-107.823	24.8593	-92.4261	-140.064	51.5822	-34.6036	-139.489	42.3564	-62.7394	-134.301	24.4305	-82.0777	-164.014	43.3059	-23.5001	-164.854	32.8755	-48.1533	-164.305	14.33	-66.4425	-154.309	64.0124	13.0509	-163.194	69.7528	46.4125	-125.501	66.224	33.6888	
133	1.10833	-103.204	35.1103	52.2537	-86.882	13.0763	42.5272	-72.5492	-5.88146	24.6538	-60.8911	-23.7279	8.79291	-97.0012	53.0385	-21.0321	-87.926	43.8292	-48.9398	-79.8682	23.8438	-69.0776	-118.491	58.8261	-35.2346	-106.349	48.3426	-62.728	-105.773	22.023	-85.1668	-143.029	53.9742	-31.445	-132.651	44.1311	-58.725	-127.523	17.6723	-77.5981	-163.691	43.913	-23.743	-161.205	33.9536	-47.4006	-153.188	14.1441	-60.8381	-154.586	66.7539	18.2265	-163.64	68.9054	45.5316	-128.206	67.585	37.8614	
134	1.11667	-105.11	36.1769	54.4323	-86.6803	13.794	36.096	-71.3666	-3.98717	20.2376	-63.6495	-20.6015	5.71106	-96.4448	55.8188	-21.2266	-80.3238	42.945	-49.368	-80.0839	22.5258	-64.6533	-113.654	60.5399	-34.0883	-105.823	49.8892	-61.4049	-97.4562	14.4172	-77.8937	-138.538	54.9605	-32.0829	-127.243	43.0883	-59.3581	-123.805	12.2308	-72.3661	-158.261	45.2274	-27.1891	-148.791	32.524	-48.1781	-140.876	9.69096	-57.6822	-152.978	63.7773	13.4128	-160.535	68.7666	41.5694	-125.129	69.3266	36.8198	
135	1.125	-104.027	37.6739	56.6837	-84.6025	14.9027	40.3215	-69.3508	-3.83417	18.9865	-61.0417	-20.5284	3.82533	-93.5025	55.7052	-24.8173	-83.5734	41.4978	-50.15	-79.0357	16.8353	-62.6835	-112.38	60.2779	-33.7823	-100.815	47.5858	-59.6695	-99.4203	8.02752	-72.9788	-130.196	54.6234	-32.7757	-125.266	39.2321	-60.6146	-117.086	9.72285	-65.8498	-154.156	43.0406	-21.7584	-145.385	30.0544	-48.2895	-137.275	5.97412	-54.971	-150.873	64.5851	16.0848	-164.687	65.0205	39.7146	-125.285	68.4426	38.2463	
136	1.13333	-103.801	36.7532	50.2947	-82.1309	14.3505	35.5882	-67.3454	-2.97164	21.2803	-61.0238	-19.5351	-0.0758237	-91.4676	55.9258	-24.9787	-82.5178	41.5276	-49.4436	-77.7539	15.8313	-59.3455	-110.291	60.646	-34.8363	-97.9706	44.1358	-60.936	-92.6101	5.6117	-65.7464	-132	53.3039	-32.1239	-122.672	40.4633	-56.9232	-116.729	4.9613	-60.855	-150.762	42.9064	-27.7607	-145.196	27.5247	-47.953	-132.067	-0.976067	-49.4604	-149.573	63.1885	18.251	-163.744	64.3594	41.1719	-126.445	67.9916	37.1122	
